# xmcd
#
# Track frame offsets: 
#        150
#        23030
#        46432
#        71007
#        94815
#        118032
#        140150
#        162652
#
# Disc length: 2382 seconds
#
# Revision: 0
# Processed by: cddbd v1.5.2PL0 Copyright (c) Steve Scherf et al.
# Submitted via: ExactAudioCopy v0.99pb3
#
DISCID=74094c08
DTITLE=Marc "Coop" Cooper - Blues Jam Along
DYEAR=1900
DGENRE=
TTITLE0=Wah/Riff Blues
TTITLE1=Walking The Blues
TTITLE2=Minor Your Own Business
TTITLE3=Slow Blues
TTITLE4=Roickin Blues
TTITLE5=Cajun Moon Blues
TTITLE6=Funkin Fingers
TTITLE7=Slow Blues - Jamming Out
EXTD=
EXTT0=
EXTT1=
EXTT2=
EXTT3=
EXTT4=
EXTT5=
EXTT6=
EXTT7=
PLAYORDER=
